Fly_normalized_Motion_pl12
version=1
nRows=20
nColumns=43
inDegrees=yes
endheader
time		pelvis_tilt		pelvis_list		pelvis_rotation		pelvis_tx		pelvis_ty		pelvis_tz		hip_flexion_r		hip_adduction_r		hip_rotation_r		knee_angle_r		ankle_angle_r		subtalar_angle_r		mtp_angle_r		hip_flexion_l		hip_adduction_l		hip_rotation_l		knee_angle_l		ankle_angle_l		subtalar_angle_l		mtp_angle_l		lumbar_extension		lumbar_bending		lumbar_rotation		neck_flexion		neck_lateral_bending		neck_rotation		arm_flex_r		arm_add_r		arm_rot_r		elbow_flex_r		pro_sup_r		wrist_flex_r		wrist_dev_r		hand_finger_flex_r		arm_flex_l		arm_add_l		arm_rot_l		elbow_flex_l		pro_sup_l		wrist_flex_l		wrist_dev_l		hand_finger_flex_l		
0.142500		-0.024969		-16.596850		81.895338		0.059504		1.776323		1.541316		51.727521		0.450853		8.562945		-134.790649		2.885210		1.109014		34.781140		68.652839		-8.230311		3.564604		-126.216905		-16.964152		16.495782		28.647297		-25.004178		-1.322420		8.725423		15.879334		0.511023		-3.147709		75.361517		-26.956828		14.118144		84.125489		129.117365		5.586417		-3.196371		7.499477		75.924442		-18.728118		15.857495		62.830634		123.015488		-2.718169		4.320344		-18.564026		
0.146692		-0.210767		-16.398347		82.031979		0.058876		1.776543		1.532222		50.947266		0.124861		8.655878		-134.213881		1.237738		0.486635		34.230896		68.472315		-8.187471		2.727585		-125.022932		-15.874412		15.248102		28.608680		-24.855198		-1.476388		8.705532		15.489904		0.546301		-3.378658		75.714868		-27.318314		14.778346		83.579579		129.295680		5.886319		-2.910009		7.356935		76.092021		-18.411181		16.120523		62.736882		122.977634		-2.340772		4.516559		-18.860996		
0.150884		-0.324859		-16.222761		82.175721		0.058296		1.776565		1.523096		50.242139		-0.129935		8.712678		-133.613292		-0.577596		0.031792		33.659696		68.369870		-8.228686		2.070577		-123.821789		-15.079539		14.055493		28.436086		-24.683839		-1.567415		8.726064		15.011485		0.607410		-3.570584		75.990078		-27.665517		15.400774		83.017314		129.466523		6.147818		-2.696997		7.271600		76.188496		-18.106050		16.384853		62.633508		122.951185		-2.034019		4.704456		-19.073486		
0.155076		-0.541276		-15.856495		82.195001		0.057760		1.776948		1.513920		49.402818		-0.427921		8.788952		-132.965068		-2.549047		-1.485352		32.422907		68.061570		-8.330144		1.141542		-122.553734		-14.604036		11.617741		27.590725		-24.777477		-1.804030		8.777014		14.851203		0.486885		-3.745549		76.253179		-27.933912		15.962164		82.440979		129.651200		6.208981		-2.524863		7.059040		76.297528		-17.815251		16.583898		62.535664		122.881255		-1.696075		4.903799		-19.484504		
0.159268		-0.650949		-15.522192		82.262237		0.057255		1.777111		1.504720		48.626740		-0.623593		8.804763		-132.303152		-4.290861		-2.316322		28.546295		67.852069		-8.464108		0.541052		-121.302737		-13.927512		9.905945		24.309584		-24.838705		-1.944131		8.837529		14.480334		0.535257		-3.861911		76.432048		-28.186354		16.455648		81.858958		129.761099		6.502505		-2.381885		6.696598		76.313986		-17.571061		16.734551		62.495129		122.748428		-0.868005		5.094701		-20.924690		
0.163460		-0.754057		-15.296474		82.271971		0.056715		1.776974		1.495649		48.062317		-0.765097		8.802083		-131.546539		-6.801346		-3.804142		27.265570		67.800525		-8.647237		-0.040616		-120.000950		-13.732666		7.753127		23.532267		-24.798956		-2.060756		8.957839		14.103345		0.499416		-4.017057		76.601758		-28.430448		17.005148		81.239606		129.965021		6.647337		-2.319732		6.618494		76.215317		-17.331031		16.846291		62.470507		122.764573		-0.723228		5.209179		-21.006002		
0.167652		-0.887247		-15.000277		82.284532		0.056086		1.776907		1.486591		47.480949		-0.973020		8.754203		-130.734335		-9.455133		-5.569073		24.816162		67.677797		-8.809706		-0.671548		-118.660937		-13.571380		5.464632		22.040372		-24.871901		-2.199610		9.059154		13.796604		0.394833		-4.129179		76.766371		-28.680023		17.523526		80.626279		130.121417		6.908805		-2.308337		6.382661		76.107583		-17.104673		16.934827		62.450648		122.805795		-0.551023		5.330642		-21.114377		
0.171843		-0.986432		-14.692216		82.334388		0.055316		1.776709		1.477554		46.921625		-1.128374		8.699123		-129.873588		-11.921584		-7.057397		19.224403		67.563124		-8.855195		-1.142884		-117.356007		-13.088654		3.626377		18.331203		-24.971595		-2.297276		9.138569		13.459136		0.350525		-4.252536		76.894573		-28.927394		17.968107		80.006342		130.296741		7.598621		-2.331966		5.555541		75.950583		-16.872466		16.975573		62.420512		122.953979		-0.286691		5.438900		-21.302334		
0.176035		-1.245666		-14.415124		82.240205		0.054560		1.776369		1.468595		46.546908		-1.396938		8.799073		-128.906606		-15.416746		-9.416636		17.345616		67.431034		-8.941531		-1.879358		-115.958694		-13.135592		1.331669		17.271294		-25.041249		-2.572681		9.241462		13.121370		0.227702		-4.404454		76.996575		-29.252233		18.500846		79.386202		130.475095		8.020040		-2.566916		5.233960		75.717585		-16.713913		17.039986		62.472825		123.101133		-0.205429		5.476600		-21.234733		
0.180227		-1.515858		-14.080259		82.162761		0.053619		1.775980		1.459657		46.152563		-1.656988		9.020221		-127.862875		-19.018340		-11.467549		14.589050		67.242623		-8.966764		-2.596257		-114.593028		-13.030386		-0.602684		15.694297		-25.190812		-2.856690		9.320624		12.833132		0.161808		-4.551438		77.061080		-29.564522		18.919984		78.733233		130.763636		8.605211		-2.936459		4.711746		75.485730		-16.527281		17.086181		62.472708		123.368235		-0.095590		5.532587		-21.079556		
0.184419		-1.776283		-13.678704		82.187847		0.052778		1.775583		1.450809		45.765651		-2.022219		9.192919		-126.772798		-22.337341		-12.862913		9.500546		66.988069		-8.940914		-3.244488		-113.225099		-12.668867		-2.265832		12.871510		-25.425674		-3.186818		9.288057		12.537752		0.440414		-4.606142		76.931047		-29.747815		18.950562		78.051364		131.450110		9.386252		-3.383550		3.759334		75.349518		-16.283417		17.134152		62.345198		123.854550		0.100338		5.624212		-20.669522		
0.188611		-2.226425		-13.359066		81.796797		0.052138		1.774892		1.442203		45.670990		-2.225189		9.901137		-125.678413		-25.529495		-14.057428		4.065301		66.744739		-9.130776		-4.170118		-111.845250		-12.252295		-3.574253		10.527791		-25.603978		-3.712781		9.516826		12.463078		0.043551		-4.824030		77.016153		-30.098748		19.387649		77.423016		131.752205		10.203323		-4.025110		3.139218		75.045635		-16.185054		17.102213		62.364923		124.134648		0.063500		5.666205		-20.334851		
0.192803		-2.518032		-13.056652		81.550662		0.051427		1.774035		1.433816		45.610580		-2.317304		10.574162		-124.526632		-28.437473		-14.196841		-0.216411		66.589690		-9.264694		-4.796758		-110.491509		-11.835377		-4.495677		9.079163		-25.801731		-4.085332		9.687013		12.388040		-0.071918		-4.971253		77.042567		-30.363166		19.714915		76.710886		131.985657		10.730142		-4.416748		2.842619		74.789777		-16.080174		17.117921		62.314341		124.314034		0.089746		5.733332		-20.055157		
0.196995		-2.832260		-12.742440		81.232165		0.050986		1.773152		1.425534		45.591503		-2.331064		11.337118		-123.336610		-31.002229		-13.930314		-1.899660		66.386131		-9.426192		-5.415100		-109.075631		-11.582413		-5.342157		8.829088		-26.031587		-4.532958		9.830781		12.267400		-0.147375		-5.071217		77.013766		-30.599785		20.116119		76.042012		132.048433		10.970997		-4.737332		2.909809		74.479214		-16.123194		17.119220		62.344388		124.409077		0.201711		5.772401		-19.915804		
0.201187		-3.311714		-12.385333		80.933247		0.050578		1.772303		1.417253		45.561173		-2.557170		12.045630		-122.277115		-30.868296		-13.009995		-10.314359		66.090672		-9.401466		-6.157024		-107.558678		-11.301299		-6.207514		7.226989		-26.321687		-5.177231		9.805325		12.114028		-0.034580		-5.105020		76.748277		-30.804473		20.300156		75.564168		132.400518		11.002897		-5.140124		3.198918		74.151150		-16.243355		17.092729		62.467271		124.815502		0.297153		5.779647		-19.254277		
0.205379		-3.294061		-12.237759		80.793834		0.050361		1.771031		1.409334		45.635183		-2.280384		12.239846		-121.148700		-30.939014		-12.382381		-10.424834		66.178623		-9.601709		-6.173846		-106.182082		-11.137566		-6.286933		7.216049		-26.483995		-5.272595		9.974711		12.115314		-0.146753		-5.166491		76.590763		-31.013489		20.628952		75.019508		132.332724		11.160757		-5.123596		3.272963		73.778457		-16.367451		17.129286		62.503391		124.778458		0.298334		5.750757		-19.225421		
0.209571		-3.430262		-11.873356		80.482446		0.050077		1.770002		1.401405		45.503954		-2.087747		12.810716		-120.108667		-29.068665		-9.884354		-9.956633		65.951573		-9.767936		-6.451295		-104.743105		-11.007192		-6.547049		7.158983		-26.888265		-5.551190		10.006433		12.149712		-0.366435		-5.079438		76.635929		-31.021311		21.289255		74.256745		131.912935		10.884491		-4.868978		3.283841		73.309958		-16.737948		17.000964		62.683274		124.759757		0.337537		5.738886		-18.972846		
0.213763		-3.507722		-11.633269		80.341268		0.049741		1.768696		1.393533		45.490860		-1.963074		12.973895		-119.074336		-26.782297		-8.122079		-8.271970		65.904386		-9.829308		-6.518888		-103.270948		-11.055270		-6.584833		7.138295		-27.191241		-5.747099		9.958088		12.142593		-0.401005		-4.999314		76.460362		-31.137948		21.801145		73.701135		131.433913		10.361308		-4.267547		3.279470		72.831696		-17.094603		16.948126		62.868446		124.833516		0.329872		5.753040		-18.646805		
0.217955		-3.493575		-11.390909		80.317043		0.049263		1.767292		1.385621		45.391952		-1.800714		13.002229		-117.985932		-24.050934		-6.109486		-5.572153		65.884913		-9.783508		-6.371296		-101.832689		-11.093720		-6.505288		7.235421		-27.522746		-5.800788		9.823213		12.206660		-0.473728		-4.808948		76.226680		-31.162936		22.259747		73.148108		131.144015		9.716544		-3.416885		3.095675		72.326096		-17.466596		16.865876		62.981587		124.944468		0.341258		5.817717		-18.341101		
0.222146		-3.636091		-11.128362		80.104066		0.048884		1.765748		1.377883		45.378252		-1.697089		13.137081		-116.842310		-22.781362		-5.367886		5.657284		65.768945		-9.823338		-6.512668		-100.305320		-11.329091		-6.636195		7.978126		-27.886720		-6.064843		9.708391		12.304502		-0.578253		-4.663389		76.073453		-31.287235		22.897776		72.585546		130.044062		9.064638		-2.481106		2.773320		71.753267		-17.887451		16.629887		63.196280		125.206479		0.318048		5.888275		-17.604061		
